<?xml version="1.0" encoding="UTF-8"?>
<svg version="1.1" xmlns="http://www.w3.org/2000/svg" width="486" height="257">
<path d="M0 0 C10.56 0 21.12 0 32 0 C40.08884298 9.27427686 40.08884298 9.27427686 41.65625 13.5078125 C44.04626046 19.36333814 47.27881364 24.42085508 50.75 29.6875 C51.769183 31.29332025 52.78515443 32.9011865 53.796875 34.51171875 C54.22323242 35.18678467 54.64958984 35.86185059 55.08886719 36.55737305 C55.53987793 37.27147339 55.53987793 37.27147339 56 38 C58.603634 35.62420832 60.300928 33.07916236 62.109375 30.0625 C62.69976562 29.08410156 63.29015625 28.10570312 63.8984375 27.09765625 C64.50945312 26.07542969 65.12046875 25.05320313 65.75 24 C78.91775244 2.08224756 78.91775244 2.08224756 81 0 C91.56 0 102.12 0 113 0 C113 34.98 113 69.96 113 106 C103.1 106 93.2 106 83 106 C82.67 87.19 82.34 68.38 82 49 C78.37 54.61 74.74 60.22 71 66 C68.44628888 69.86070964 65.88867371 73.71699098 63.3125 77.5625 C62.69439453 78.48740234 62.07628906 79.41230469 61.43945312 80.36523438 C59.96074334 82.57756762 58.48094514 84.7891628 57 87 C52.77171251 85.59057084 51.60649228 82.53318909 49.4375 78.875 C48.55151478 77.41673005 47.66343732 75.95972952 46.7734375 74.50390625 C46.31807617 73.7577002 45.86271484 73.01149414 45.39355469 72.24267578 C42.80613316 68.07868591 40.05681003 64.0237637 37.31225586 59.96240234 C35.10368146 56.68622121 33.03593929 53.39323215 31 50 C30.67 68.48 30.34 86.96 30 106 C20.1 106 10.2 106 0 106 C0 71.02 0 36.04 0 0 Z " fill="#FEFEFE" transform="translate(115,149)"/>
<path d="M0 0 C10.56 0 21.12 0 32 0 C42.00587487 12.38489407 42.00587487 12.38489407 44.1875 17.66015625 C46.55590755 23.08371248 49.27470613 28.00897988 52.4375 33 C53.14891791 34.18487721 53.85651565 35.37206488 54.55859375 36.5625 C55.03425781 37.366875 55.50992188 38.17125 56 39 C62.46618783 29.04662686 68.77036284 18.99635761 75.03344727 8.9140625 C75.66178467 7.90472656 76.29012207 6.89539063 76.9375 5.85546875 C77.50339844 4.94434326 78.06929688 4.03321777 78.65234375 3.09448242 C80 1 80 1 81 0 C91.56 0 102.12 0 113 0 C113 34.98 113 69.96 113 106 C103.1 106 93.2 106 83 106 C82.67 87.19 82.34 68.38 82 49 C76.76499318 57.01570077 76.76499318 57.01570077 71.53125 65.03222656 C66.72812622 72.38239146 61.88434043 79.70343422 57 87 C53.35178683 85.78392894 52.97551933 84.82137283 50.99609375 81.6171875 C50.41923828 80.69550781 49.84238281 79.77382812 49.24804688 78.82421875 C48.65056641 77.85097656 48.05308594 76.87773437 47.4375 75.875 C41.79737022 66.78706207 35.93990249 57.90985374 30 49 C29.67 67.81 29.34 86.62 29 106 C19.43 106 9.86 106 0 106 C0 71.02 0 36.04 0 0 Z " fill="#FEFEFE" transform="translate(355,149)"/>
<path d="M0 0 C10.291875 -0.0825 20.58375 -0.165 31.1875 -0.25 C36.02184692 -0.30462402 36.02184692 -0.30462402 40.95385742 -0.36035156 C43.54605445 -0.37204842 46.1382589 -0.38223787 48.73046875 -0.390625 C50.04583618 -0.41108887 51.36120361 -0.43155273 52.71643066 -0.45263672 C64.58379415 -0.457057 76.23907209 1.36886362 85 10 C89.99399817 15.91394521 91.3536067 22.46315941 90.875 30.0625 C89.8031651 37.9185626 86.73710698 42.94209986 80.5859375 47.87109375 C79 49 79 49 77 50 C77.73605469 50.43570313 78.47210938 50.87140625 79.23046875 51.3203125 C87.14143337 56.14840451 92.4375684 59.75536529 95 69 C95.97926914 78.27728663 95.67899539 86.33695052 90 94 C83.30165323 101.66237682 73.82388522 104.69436361 64 106 C59.00685563 106.25551214 54.02132132 106.23475928 49.0234375 106.1953125 C47.7753833 106.19329834 46.5273291 106.19128418 45.24145508 106.18920898 C40.61926552 106.17881573 35.99712872 106.15089364 31.375 106.125 C15.844375 106.063125 15.844375 106.063125 0 106 C0 71.02 0 36.04 0 0 Z M30 24 C30 29.94 30 35.88 30 42 C33.52130364 42.08133037 37.04070754 42.14066172 40.5625 42.1875 C42.0484668 42.22520508 42.0484668 42.22520508 43.56445312 42.26367188 C49.5191721 42.32302123 53.76205264 41.91391916 59 39 C61.06261705 36.50767107 61.00512397 35.24595074 60.9375 32 C59.75515124 28.21648396 58.32124506 27.08543294 55 25 C51.9595952 24.01838588 49.19931 23.88293104 46.015625 23.90234375 C45.08105469 23.90556641 44.14648438 23.90878906 43.18359375 23.91210938 C42.21550781 23.92048828 41.24742188 23.92886719 40.25 23.9375 C38.77466797 23.94426758 38.77466797 23.94426758 37.26953125 23.95117188 C34.84632806 23.962935 32.42315623 23.98086982 30 24 Z M30 63 C30 69.27 30 75.54 30 82 C33.85435694 82.05415958 37.70794559 82.09375289 41.5625 82.125 C43.19155273 82.15013672 43.19155273 82.15013672 44.85351562 82.17578125 C54.9213562 82.42539492 54.9213562 82.42539492 63.4375 77.75 C65.31238882 74.45019568 65.63592598 72.73606516 65 69 C62.27499551 65.22691686 59.38825406 64.22658832 55 63 C52.0097105 62.72878684 52.0097105 62.72878684 48.9453125 62.8046875 C47.28242187 62.81435547 47.28242187 62.81435547 45.5859375 62.82421875 C44.44382812 62.84097656 43.30171875 62.85773438 42.125 62.875 C40.9596875 62.88402344 39.794375 62.89304688 38.59375 62.90234375 C35.72907795 62.92582467 32.86451215 62.961693 30 63 Z " fill="#FEFEFE" transform="translate(1,23)"/>
<path d="M0 0 C70.63008721 0 70.63008721 0 87.74609375 16.5390625 C97.65430657 27.35738846 101.92702202 41.04157578 101.3828125 55.64453125 C99.70464811 70.35415587 94.90298278 82.24416182 84.01953125 92.60546875 C80.60538522 95.31293513 77.17215271 97.43491201 73.3125 99.4375 C72.4155542 99.91437256 72.4155542 99.91437256 71.50048828 100.40087891 C50.40645704 110.54675318 20.42065659 106 0 106 C0 71.02 0 36.04 0 0 Z M30 27 C30 44.16 30 61.32 30 79 C47.84783686 79.64649439 47.84783686 79.64649439 62.375 72.75 C68.44217957 66.39390712 70.33758384 59.26820142 70.2109375 50.65625 C69.61252721 43.12071301 66.75649044 36.95805105 61 32 C50.7846848 25.52439557 43.14556278 27 30 27 Z " fill="#FEFEFE" transform="translate(364,23)"/>
<path d="M0 0 C9.9 0 19.8 0 30 0 C30.495 19.8 30.495 19.8 31 40 C36.71506381 33.71342981 42.19039995 27.62185167 47.4921875 21.046875 C51.12528505 16.63283125 54.88850053 12.33457532 58.65942383 8.03808594 C59.46029419 7.1220459 59.46029419 7.1220459 60.27734375 6.1875 C60.75421631 5.64480469 61.23108887 5.10210937 61.72241211 4.54296875 C63.19804601 2.81494601 63.19804601 2.81494601 65 0 C67.76628915 -0.2667616 70.30619631 -0.34804189 73.0703125 -0.29296875 C74.26465408 -0.28660149 74.26465408 -0.28660149 75.48312378 -0.28010559 C78.03075729 -0.26328834 80.57760489 -0.22563179 83.125 -0.1875 C84.85024901 -0.17245705 86.57551039 -0.15876796 88.30078125 -0.14648438 C92.53415782 -0.11337501 96.76694559 -0.06157285 101 0 C99.2250048 3.80125005 96.80964239 6.54953756 93.9375 9.5625 C90.34887672 13.39465791 86.90355389 17.26920432 83.625 21.375 C79.4608041 26.55761338 74.99578431 31.4047952 70.42822266 36.22998047 C68.93872393 37.80813445 67.46860613 39.40244572 66 41 C65.33742188 41.69222656 64.67484375 42.38445312 63.9921875 43.09765625 C62.74339566 44.99771704 62.74339566 44.99771704 63.49609375 47.296875 C65.44920812 50.80740784 67.69866517 54.00575729 70.0625 57.25 C75.40370884 64.6962049 80.60401164 72.23012911 85.75 79.8125 C86.44617432 80.83698242 87.14234863 81.86146484 87.85961914 82.91699219 C89.22212697 84.92550971 90.58212072 86.93573527 91.93945312 88.94775391 C93.38545834 91.08969196 94.83720917 93.22692493 96.29492188 95.36083984 C97.39416992 96.9823999 97.39416992 96.9823999 98.515625 98.63671875 C99.51770996 100.10757935 99.51770996 100.10757935 100.54003906 101.6081543 C102 104 102 104 102 106 C76.65239559 110.49121192 76.65239559 110.49121192 66 106 C56.50839843 99.12103757 50.9581756 86.74461933 45.90234375 76.48339844 C44.19340459 73.35414486 42.66725198 71.31825186 40 69 C34.27837807 74.00922178 30.48020981 78.08216077 29.90234375 85.8828125 C29.86150357 88.29655796 29.88308394 90.71152243 29.9375 93.125 C29.958125 97.37375 29.97875 101.6225 30 106 C20.1 106 10.2 106 0 106 C0 71.02 0 36.04 0 0 Z " fill="#FEFEFE" transform="translate(245,149)"/>
<path d="M0 0 C10.23 0 20.46 0 31 0 C31.01417969 4.64835937 31.02835938 9.29671875 31.04296875 14.0859375 C31.06304939 17.04825133 31.08458867 20.01041325 31.11132812 22.97265625 C31.15354112 27.66428488 31.19063857 32.35552796 31.19555664 37.04736328 C31.1998665 40.83435982 31.22854798 44.6204899 31.27343178 48.40721512 C31.28632178 49.84468138 31.29074489 51.2822518 31.28615379 52.71976852 C31.26504323 61.34463688 31.77367952 68.78245327 37 76 C41.40302162 79.30226622 46.56197062 80.13438293 52 80 C56.90061001 79.17924743 60.18269025 77.71297234 63.9375 74.4375 C69.37373954 66.80470059 68.33406447 55.56295583 68.4140625 46.6796875 C68.43281578 45.32633336 68.45239213 43.97299041 68.4727478 42.61965942 C68.5236366 39.09186456 68.56349082 35.56403197 68.60089111 32.03607178 C68.64120525 28.42239417 68.69206988 24.80886525 68.7421875 21.1953125 C68.83941289 14.13026777 68.91927766 7.06532936 69 0 C78.9 0 88.8 0 99 0 C99.12032643 16.7387431 99.12032643 16.7387431 99.14648438 23.94140625 C99.1643328 28.83262038 99.18531616 33.72366409 99.22631836 38.61474609 C99.25920907 42.56348778 99.27691475 46.51204638 99.28463173 50.46091461 C99.29012248 51.95821255 99.30084251 53.45550188 99.31719017 54.95272064 C99.47569011 70.08800658 97.51849742 84.37011122 86.8125 95.8125 C75.0958602 106.73903744 59.81918994 108.74900652 44.33984375 108.28515625 C31.06800771 107.58970157 19.23056584 103.45005522 10.04296875 93.64453125 C0.16963876 80.86394922 -0.31337826 65.8743935 -0.1953125 50.390625 C-0.19157184 48.92804154 -0.18872986 47.46545554 -0.18673706 46.00286865 C-0.1791833 42.19548343 -0.15960824 38.38825633 -0.1373291 34.58093262 C-0.11304718 29.99020657 -0.10405027 25.39942698 -0.09242249 20.80865479 C-0.07317703 13.87232732 -0.03479772 6.93634523 0 0 Z " fill="#FEFEFE" transform="translate(107,23)"/>
<path d="M0 0 C10.23 0 20.46 0 31 0 C31.12032643 15.86971889 31.12032643 15.86971889 31.14648438 22.72851562 C31.16429342 27.37583931 31.1851666 32.02298272 31.22631836 36.67016602 C31.25934803 40.42440682 31.2769429 44.17845381 31.28463173 47.9328289 C31.29009825 49.35228965 31.30076794 50.77174197 31.31719017 52.19111824 C31.49261804 68.0085914 29.84163 83.37521021 19 95.75 C7.2674345 106.54604143 -7.82941985 108.6797345 -23.1015625 108.30859375 C-35.79062663 107.70779523 -47.99749203 104.17298101 -57.0859375 94.86328125 C-64.74179752 85.60841249 -68.15502686 75.13046827 -68.046875 63.1796875 C-68.04010742 62.20499512 -68.03333984 61.23030273 -68.02636719 60.22607422 C-68.01766602 59.49146973 -68.00896484 58.75686523 -68 58 C-63.74585377 57.97534378 -59.49174502 57.95716101 -55.23754883 57.94506836 C-53.78929927 57.94002899 -52.34105483 57.93319747 -50.89282227 57.92456055 C-48.81525412 57.91247753 -46.73775303 57.90676789 -44.66015625 57.90234375 C-43.40855713 57.89710693 -42.15695801 57.89187012 -40.86743164 57.88647461 C-38 58 -38 58 -37 59 C-36.70321119 60.72490129 -36.43764046 62.4552189 -36.1875 64.1875 C-35.13498245 70.15434584 -33.53953838 74.15883467 -28.5 77.8125 C-22.67910395 80.57742562 -16.97903431 80.84504483 -10.8125 78.8125 C-7.08557051 77.26982513 -5.12044684 75.50689285 -3 72 C-1.27969931 67.63141766 -0.73497546 63.94286492 -0.68115234 59.26025391 C-0.67110672 58.61564209 -0.6610611 57.97103027 -0.65071106 57.30688477 C-0.62005956 55.19678562 -0.60289495 53.08681226 -0.5859375 50.9765625 C-0.56721126 49.50539074 -0.54763678 48.03422955 -0.5272522 46.56307983 C-0.47607851 42.70642349 -0.43637422 38.84973239 -0.39910889 34.99291992 C-0.35190998 30.35715067 -0.29037584 25.72155193 -0.23126221 21.08592224 C-0.14323 14.05735088 -0.07333738 7.02880922 0 0 Z " fill="#FEFEFE" transform="translate(68,149)"/>
<path d="M0 0 C10.23 0 20.46 0 31 0 C31 26.07 31 52.14 31 79 C47.4100505 78.96039098 47.4100505 78.96039098 63.82006836 78.90991211 C65.8683263 78.90699313 67.91658481 78.90444453 69.96484375 78.90234375 C71.57655457 78.8946698 71.57655457 78.8946698 73.2208252 78.88684082 C74.23584106 78.88671997 75.25085693 78.88659912 76.29663086 78.88647461 C77.62566689 78.88314369 77.62566689 78.88314369 78.98155212 78.87974548 C81 79 81 79 82 80 C82.09959621 81.84159023 82.13080411 83.68696967 82.1328125 85.53125 C82.13410156 86.65144531 82.13539063 87.77164063 82.13671875 88.92578125 C82.13285156 90.10527344 82.12898438 91.28476563 82.125 92.5 C82.12886719 93.67949219 82.13273437 94.85898438 82.13671875 96.07421875 C82.13542969 97.19441406 82.13414062 98.31460938 82.1328125 99.46875 C82.13168457 100.50451172 82.13055664 101.54027344 82.12939453 102.60742188 C82 105 82 105 81 106 C78.47455024 106.095044 75.97666582 106.1255585 73.45092773 106.11352539 C72.24641637 106.11370619 72.24641637 106.11370619 71.01757145 106.11389065 C68.40621782 106.11314149 65.79493469 106.10551312 63.18359375 106.09765625 C61.57621291 106.09618684 59.9688316 106.09516612 58.3614502 106.09460449 C52.38679286 106.08935148 46.41214574 106.07539041 40.4375 106.0625 C27.093125 106.041875 13.74875 106.02125 0 106 C0 71.02 0 36.04 0 0 Z " fill="#FAFAFA" transform="translate(271,23)"/>
<path d="M0 0 C9.9 0 19.8 0 30 0 C30 34.98 30 69.96 30 106 C20.1 106 10.2 106 0 106 C0 71.02 0 36.04 0 0 Z " fill="#FEFEFE" transform="translate(223,23)"/>
<path d="M0 0 C15.60730369 6.44691336 27.77588262 16.47583287 35 32 C42.37520711 51.60725792 41.35488243 71.73934593 33.375 90.9765625 C28.26333799 102.21641021 22.00716009 112.49462993 12 120 C13.49980936 116.80089924 15.3312131 113.98390973 17.3125 111.0625 C26.6056442 96.54196219 30.62869092 79.06967401 27.3125 62.0234375 C24.16586708 49.14846449 18.06183681 35.72543325 6.421875 28.37109375 C3.39588346 26.39658669 1.84043137 25.15259078 0 22 C-1.12485854 14.74523052 -0.55013063 7.28993615 0 0 Z " fill="#4C0091" transform="translate(446,0)"/>
<path d="M0 0 C10.23 0 20.46 0 31 0 C31 13.2 31 26.4 31 40 C20.77 40 10.54 40 0 40 C0 26.8 0 13.6 0 0 Z " fill="#4D0092" transform="translate(0,164)"/>
<path d="M0 0 C10.23 0 20.46 0 31 0 C31 3.96 31 7.92 31 12 C20.77 12 10.54 12 0 12 C0 8.04 0 4.08 0 0 Z " fill="#FDFDFD" transform="translate(0,149)"/>
</svg>
